#N canvas 654 62 1024 911 12;
#X obj 431 56 pdcontrol;
#X msg 431 33 args 0;
#X obj 431 5 loadbang;
#X obj 431 80 route bang float;
#X msg 431 102 1000;
#X obj 13 760 symbol \$0_bufcirc;
#X obj 13 829 outlet;
#X floatatom 431 245 8 0 0 0 - - -;
#X floatatom 431 288 12 0 0 0 - - -;
#X obj 431 266 expr ceil($f1*($f2/1000)/64)*64;
#X obj 471 176 samplerate~;
#X obj 117 87 sel 1 0;
#X obj -3 63 inlet~;
#X obj 442 874 outlet~;
#X obj 49 63 inlet;
#X obj 441 429 bang~;
#X obj 471 199 s \$0_sr;
#X obj 645 246 r \$0_sr;
#X obj 451 220 s \$0_dumpArrayName;
#X obj 13 737 r \$0_dumpArrayName;
#X obj 117 111 s \$0_dumpArrayName;
#X obj 175 87 s \$0_zerophase;
#X obj 773 143 array size \$0_bufcirc;
#X obj 441 452 f;
#X obj 472 452 + 1;
#X msg 486 429 0;
#X obj 431 309 s \$0_numsamp;
#X obj 773 120 r \$0_numsamp;
#X obj 520 514 r \$0_numsamp;
#X obj 486 514 / 64;
#X obj 459 514 - 1;
#X obj 441 485 t f f;
#X obj 441 538 >=;
#X obj 441 560 sel 1;
#X obj 598 696 array get \$0_prov;
#X obj 49 85 s \$0_sw;
#X obj -2 147 r \$0_sw;
#X obj 442 677 phasor~;
#X obj 442 630 / 64;
#X obj 442 654 sig~;
#X obj 442 700 *~ 64;
#X obj 773 90 table \$0_prov 64;
#X obj 598 647 * 64;
#X obj -3 120 tabsend~ \$0_prov;
#X obj 598 776 array set \$0_bufcirc;
#X obj 442 784 +~;
#X obj 773 66 table \$0_bufcirc;
#X obj 117 64 r \$0_sw;
#X obj 442 606 r \$0_sr;
#X obj 460 737 sig~;
#X obj 460 761 samphold~;
#X obj 431 126 t f b b b;
#X obj 491 150 s \$0_restart;
#X obj 486 403 r \$0_restart;
#X obj 441 583 s \$0_restart;
#X obj 488 484 s \$0_count;
#X obj 598 625 r \$0_count;
#X obj 598 669 t b f f;
#X text 770 45 arrays;
#X text 497 5 initialization;
#X text -5 31 inputs and switch control;
#X obj -2 171 switch~ 64 1 1;
#X text 13 716 left output: set buf_circ_arrayname;
#X text 503 836 right output: current write sample (signal);
#X connect 0 0 3 0;
#X connect 1 0 0 0;
#X connect 2 0 1 0;
#X connect 3 0 4 0;
#X connect 3 1 51 0;
#X connect 4 0 51 0;
#X connect 5 0 6 0;
#X connect 7 0 9 0;
#X connect 8 0 26 0;
#X connect 9 0 8 0;
#X connect 10 0 16 0;
#X connect 11 0 20 0;
#X connect 11 1 21 0;
#X connect 12 0 43 0;
#X connect 14 0 35 0;
#X connect 15 0 23 0;
#X connect 17 0 9 1;
#X connect 19 0 5 0;
#X connect 23 0 31 0;
#X connect 24 0 23 1;
#X connect 25 0 23 1;
#X connect 27 0 22 0;
#X connect 28 0 29 0;
#X connect 29 0 30 0;
#X connect 30 0 32 1;
#X connect 31 0 32 0;
#X connect 31 1 24 0;
#X connect 31 1 55 0;
#X connect 32 0 33 0;
#X connect 33 0 54 0;
#X connect 34 0 44 0;
#X connect 36 0 61 0;
#X connect 37 0 40 0;
#X connect 38 0 39 0;
#X connect 39 0 37 0;
#X connect 40 0 45 0;
#X connect 40 0 50 1;
#X connect 42 0 57 0;
#X connect 45 0 13 0;
#X connect 47 0 11 0;
#X connect 48 0 38 0;
#X connect 49 0 50 0;
#X connect 50 0 45 1;
#X connect 51 0 7 0;
#X connect 51 1 18 0;
#X connect 51 2 10 0;
#X connect 51 3 52 0;
#X connect 53 0 25 0;
#X connect 56 0 42 0;
#X connect 57 0 34 0;
#X connect 57 1 49 0;
#X connect 57 2 44 1;
#X coords 0 911 1 910 262 115 0;
