#N canvas 0 23 1024 616 12;
#X obj 91 159 openpanel;
#X obj 91 266 soundfiler;
#X obj 91 410 phasor~;
#X obj 111 437 *~;
#X obj 91 314 expr 1 / ( $f1 / 44100 );
#X obj 91 385 sig~;
#X obj 148 410 sig~;
#X obj 125 361 t 0;
#X obj 91 498 outlet~;
#X obj 188 28 bng 15 250 50 0 empty empty empty 17 7 0 10 -262144 -1
-1;
#X text 208 30 Play/Stop;
#X obj 28 437 snapshot~;
#X obj 91 361 f;
#X obj 269 28 tgl 15 0 empty empty empty 17 7 0 10 -262144 -1 -1 0
1;
#X obj 322 314 sel 1 0;
#X msg 28 461 set \$1;
#X text 156 30 Load;
#N canvas 0 22 450 278 (subpatch) 0;
#X array \$0_file 8.39655e+06 float 2;
#X coords 0 1 8.39655e+06 -1 256 64 2 0 0;
#X restore 28 46 graph;
#X obj 31 110 hsl 251 8 0 1 0 0 empty empty empty 0 0 0 10 -262144
-1 -1 1867 0;
#X obj 28 408 metro 20;
#X obj 91 135 t b 0;
#X msg 157 362 1;
#X obj 176 498 outlet~;
#X obj 91 230 list trim;
#X msg 90 183 read -maxsize 1e+09 \$1;
#X obj 91 206 list append \$0_file;
#X obj 91 463 tabread4~ \$0_file;
#X obj 401 116 pdcontrol;
#X msg 401 93 args 0;
#X obj 401 65 loadbang;
#X obj 401 140 route bang symbol;
#X obj 589 432 symbol \$0_file;
#X obj 589 456 outlet;
#X obj 639 108 inlet;
#X obj 738 453 outlet;
#X obj 736 418 f;
#X obj 639 132 t b b;
#X connect 0 0 24 0;
#X connect 1 0 6 0;
#X connect 1 0 4 0;
#X connect 1 0 35 0;
#X connect 2 0 3 0;
#X connect 2 0 11 0;
#X connect 3 0 26 0;
#X connect 3 0 22 0;
#X connect 4 0 12 0;
#X connect 4 0 21 0;
#X connect 5 0 2 0;
#X connect 6 0 3 1;
#X connect 7 0 5 0;
#X connect 9 0 20 0;
#X connect 11 0 15 0;
#X connect 12 0 5 0;
#X connect 13 0 14 0;
#X connect 13 0 19 0;
#X connect 14 0 12 0;
#X connect 14 1 7 0;
#X connect 15 0 18 0;
#X connect 18 0 2 1;
#X connect 19 0 11 0;
#X connect 20 0 0 0;
#X connect 20 1 2 1;
#X connect 21 0 13 0;
#X connect 23 0 1 0;
#X connect 24 0 25 0;
#X connect 25 0 23 0;
#X connect 26 0 8 0;
#X connect 27 0 30 0;
#X connect 28 0 27 0;
#X connect 29 0 28 0;
#X connect 30 1 24 0;
#X connect 31 0 32 0;
#X connect 33 0 36 0;
#X connect 35 0 34 0;
#X connect 36 0 31 0;
#X connect 36 1 35 0;
#X coords 0 -1 1 1 262 96 2 25 25;
