#N canvas 261 187 1024 616 12;
#X obj 91 159 openpanel;
#X obj 91 266 soundfiler;
#X obj 91 410 phasor~;
#X obj 111 437 *~;
#X obj 91 385 sig~;
#X obj 148 410 sig~;
#X obj 91 498 outlet~;
#X obj 188 43 bng 15 250 50 0 empty empty empty 17 7 0 10 -262144 -1
-1;
#X text 208 45 Play/Stop;
#X obj 28 437 snapshot~;
#X obj 91 361 f;
#X obj 316 54 tgl 15 0 empty empty empty 17 7 0 10 -262144 -1 -1 1
1;
#X obj 322 314 sel 1 0;
#X msg 28 461 set \$1;
#X text 156 45 Load;
#N canvas 0 22 450 278 (subpatch) 0;
#X array \$0_file 4.32768e+06 float 2;
#X coords 0 1 4.32768e+06 -1 256 64 2 0 0;
#X restore 28 61 graph;
#X obj 31 125 hsl 251 8 0 1 0 0 empty empty empty 0 0 0 10 -262144
-1 -1 4680 0;
#X obj 28 408 metro 20;
#X obj 91 135 t b 0;
#X msg 157 362 1;
#X obj 91 230 list trim;
#X msg 90 183 read -maxsize 1e+09 \$1;
#X obj 91 206 list append \$0_file;
#X obj 91 463 tabread4~ \$0_file;
#X obj 401 116 pdcontrol;
#X msg 401 93 args 0;
#X obj 401 65 loadbang;
#X obj 401 140 route bang symbol;
#X obj 463 492 outlet;
#X obj 639 68 inlet;
#X obj 738 453 outlet;
#X obj 736 418 f;
#X obj 463 468 snapshot~;
#X obj 242 288 samplerate~;
#X obj 242 265 loadbang;
#X obj 91 314 expr 1 / ( $f1 / $f2 );
#X obj 639 162 t s b;
#X obj 370 225 print;
#X obj 639 92 list prepend symbol;
#X obj 639 116 list trim;
#X obj 365 29 inlet;
#X obj 125 361 f 0;
#X connect 0 0 21 0;
#X connect 1 0 5 0;
#X connect 1 0 31 0;
#X connect 1 0 35 0;
#X connect 2 0 3 0;
#X connect 2 0 9 0;
#X connect 3 0 23 0;
#X connect 3 0 32 0;
#X connect 4 0 2 0;
#X connect 5 0 3 1;
#X connect 7 0 18 0;
#X connect 9 0 13 0;
#X connect 10 0 4 0;
#X connect 11 0 12 0;
#X connect 11 0 17 0;
#X connect 12 0 10 0;
#X connect 12 1 41 0;
#X connect 13 0 16 0;
#X connect 16 0 2 1;
#X connect 17 0 9 0;
#X connect 17 0 32 0;
#X connect 18 0 0 0;
#X connect 18 1 2 1;
#X connect 20 0 1 0;
#X connect 21 0 22 0;
#X connect 22 0 20 0;
#X connect 22 0 37 0;
#X connect 23 0 6 0;
#X connect 24 0 27 0;
#X connect 25 0 24 0;
#X connect 26 0 25 0;
#X connect 27 1 21 0;
#X connect 29 0 38 0;
#X connect 31 0 30 0;
#X connect 32 0 28 0;
#X connect 33 0 35 1;
#X connect 34 0 33 0;
#X connect 35 0 19 0;
#X connect 35 0 10 1;
#X connect 36 0 21 0;
#X connect 36 1 31 0;
#X connect 38 0 39 0;
#X connect 39 0 36 0;
#X connect 40 0 11 0;
#X connect 41 0 4 0;
#X coords 0 616 1 615 262 115 0;
