#N canvas 542 23 1274 1035 12;
#X declare -lib pd_spectral_toolkit;
#X obj 284 684 dac~;
#X floatatom 367 111 12 0 0 0 - - -;
#X obj 639 39 declare -lib pd_spectral_toolkit;
#X obj 1026 409 line~;
#X obj 1053 348 pack 0 0;
#X msg 1053 318 -8000;
#X obj 1026 379 t l;
#X msg 1117 146 0;
#X obj 1053 296 t b f;
#X text 1170 220 1x (-4 + 4going on);
#X text 1167 195 2x (-4 + 4going on);
#X msg 1184 359 -20000 2000;
#X msg 1185 304 0 2000;
#X msg 1117 239 6000;
#X msg 1117 216 4000;
#X msg 1117 191 2000;
#X msg 1117 169 1000;
#X obj 284 415 *~;
#X obj 463 418 *~;
#X obj 312 415 line~;
#X obj 492 418 line~;
#X obj 484 511 vsl 20 180 0 106 0 0 empty empty empty 0 -9 0 10 -262144
-1 -1 15600 1;
#X floatatom 484 723 5 0 0 0 - - -;
#X obj 484 699 dbtorms;
#X msg 484 746 \$1 100;
#X obj 546 511 vsl 20 180 0 106 0 0 empty empty empty 0 -9 0 10 -262144
-1 -1 15100 1;
#X floatatom 546 723 5 0 0 0 - - -;
#X obj 546 699 dbtorms;
#X msg 546 746 \$1 100;
#X text 1115 127 go to 8s behind \, in X ms;
#X text 1239 304 go to present in 2000 ms;
#X text 1239 324 jump to present;
#X text 1281 360 go to -20s in 2s;
#X text 1281 380 go to -30s in 35s;
#X msg 1184 428 0 120000;
#X obj 284 372 tabread4~;
#X obj 379 245 tgl 15 0 empty empty empty 17 7 0 10 -262144 -1 -1 1
1;
#X obj 284 324 list prepend set;
#X obj 284 346 list trim;
#X obj 284 264 buf_circ 40000;
#X msg 1185 326 0 0;
#X msg 1184 382 -30000 35000;
#X msg 1184 406 0 60000;
#X obj 1336 527 osc~ 2;
#X obj 1336 551 *~ 10;
#X obj 1336 575 -~ 10;
#X floatatom 1382 551 5 0 0 0 - - -;
#X floatatom 1336 506 5 0 0 0 - - -;
#X msg 1117 262 16000;
#X floatatom 314 135 12 0 0 0 - - -;
#X text 59 376 test: reading the array at the;
#X text 101 390 recording timepoint;
#X text 402 245 2 turn on circular buffer;
#X msg 516 342 hann 8192 16;
#X text 513 324 optional: change window-type \, window-size \, and
overlap;
#X obj 1127 809 send~ \$0_time_travel;
#X obj 498 299 receive~ \$0_time_travel;
#X text 572 505 3 Left: input / Right: Phase Vocoder;
#X obj 1038 786 snapshot~;
#X floatatom 1038 810 12 0 0 0 - - -;
#X obj 972 728 tgl 15 0 empty empty empty 17 7 0 10 -262144 -1 -1 1
1;
#X msg 972 706 1;
#X obj 972 683 loadbang;
#X obj 1477 476 loadbang;
#X msg 1477 498 5;
#X msg 1497 523 4000;
#X text 1425 551 LFO Depth (ms);
#X text 1388 505 LFO (Hz);
#X text 967 21 "Time travel";
#X text 1019 74 [negative numbers.. max: 0];
#X text 1019 114 [ms];
#X text 1247 406 go to present in 60s;
#X text 1247 426 go to present in 120s;
#N canvas 0 23 699 628 sel 0;
#X obj 57 69 inlet~;
#X obj 240 68 inlet~;
#X obj 92 183 +~;
#X obj 188 176 line~;
#X obj 188 206 line~;
#X obj 62 214 *~;
#X obj 90 214 *~;
#X obj 72 282 outlet~;
#X obj 404 109 hradio 15 1 0 2 empty empty empty 0 -8 0 10 -262144
-1 -1 1;
#X msg 323 126 \$1 100;
#X msg 323 186 \$1 100;
#X obj 404 174 - 1;
#X obj 393 214 abs;
#X floatatom 393 238 5 0 0 0 - - -;
#X obj 491 76 loadbang;
#X msg 491 100 0;
#X connect 0 0 2 0;
#X connect 0 0 5 0;
#X connect 1 0 2 1;
#X connect 2 0 6 0;
#X connect 3 0 5 1;
#X connect 4 0 6 1;
#X connect 5 0 7 0;
#X connect 6 0 7 0;
#X connect 8 0 11 0;
#X connect 8 0 10 0;
#X connect 9 0 3 0;
#X connect 10 0 4 0;
#X connect 11 0 12 0;
#X connect 12 0 13 0;
#X connect 13 0 9 0;
#X connect 14 0 15 0;
#X connect 15 0 8 0;
#X coords 0 -1 1 1 40 30 2 400 100;
#X restore 1110 529 pd sel;
#X obj 986 756 metro 50;
#X text 960 809 timepoint:;
#X text 946 20 5;
#X text 987 57 float 1 timepoint in the past to go (circular buffer)
;
#X text 987 97 float 2 duration to get there;
#X text 137 43 1 Load file or use the mic:;
#X obj 114 153 adc~;
#N canvas 0 23 699 628 sel 0;
#X obj 57 69 inlet~;
#X obj 240 68 inlet~;
#X obj 188 176 line~;
#X obj 188 206 line~;
#X obj 62 214 *~;
#X obj 90 214 *~;
#X obj 72 282 outlet~;
#X obj 404 109 hradio 15 1 0 2 empty empty empty 0 -8 0 10 -262144
-1 -1 1;
#X msg 323 126 \$1 100;
#X msg 323 186 \$1 100;
#X obj 404 174 - 1;
#X obj 393 214 abs;
#X floatatom 393 238 5 0 0 0 - - -;
#X obj 491 76 loadbang;
#X msg 491 100 1;
#X connect 0 0 4 0;
#X connect 1 0 5 0;
#X connect 2 0 4 1;
#X connect 3 0 5 1;
#X connect 4 0 6 0;
#X connect 5 0 6 0;
#X connect 7 0 10 0;
#X connect 7 0 9 0;
#X connect 8 0 2 0;
#X connect 9 0 3 0;
#X connect 10 0 11 0;
#X connect 11 0 12 0;
#X connect 12 0 8 0;
#X connect 13 0 14 0;
#X connect 14 0 7 0;
#X coords 0 -1 1 1 40 30 2 400 100;
#X restore 139 207 pd sel;
#X obj 463 393 pvoc_abs;
#X msg 555 417 hann 1024 2;
#X msg 555 388 blackman 4096 4;
#X obj 379 201 loadbang;
#X msg 379 223 1;
#X msg 365 35 flute1.wav;
#X msg 365 61 monteverdi.wav;
#X obj 267 68 tgl 15 0 empty empty empty 17 7 0 10 -262144 -1 -1 1
1;
#X obj 284 97 file_play;
#X text 460 112 length (samples);
#X text 405 136 current sample;
#X msg 536 364 blackman-nuttall 4096 16;
#X connect 3 0 73 0;
#X connect 4 0 6 0;
#X connect 5 0 4 0;
#X connect 6 0 3 0;
#X connect 7 0 8 0;
#X connect 8 0 5 0;
#X connect 8 1 4 1;
#X connect 11 0 6 0;
#X connect 12 0 6 0;
#X connect 13 0 8 0;
#X connect 14 0 8 0;
#X connect 15 0 8 0;
#X connect 16 0 8 0;
#X connect 17 0 0 0;
#X connect 18 0 0 1;
#X connect 19 0 17 1;
#X connect 20 0 18 1;
#X connect 21 0 23 0;
#X connect 22 0 24 0;
#X connect 23 0 22 0;
#X connect 24 0 19 0;
#X connect 25 0 27 0;
#X connect 26 0 28 0;
#X connect 27 0 26 0;
#X connect 28 0 20 0;
#X connect 34 0 6 0;
#X connect 35 0 17 0;
#X connect 36 0 39 1;
#X connect 37 0 38 0;
#X connect 38 0 35 0;
#X connect 39 0 37 0;
#X connect 39 0 82 0;
#X connect 39 1 35 0;
#X connect 39 1 82 1;
#X connect 40 0 6 0;
#X connect 41 0 6 0;
#X connect 42 0 6 0;
#X connect 43 0 44 0;
#X connect 44 0 45 0;
#X connect 45 0 73 1;
#X connect 46 0 44 1;
#X connect 46 0 45 1;
#X connect 47 0 43 0;
#X connect 48 0 8 0;
#X connect 53 0 82 3;
#X connect 56 0 82 2;
#X connect 58 0 59 0;
#X connect 60 0 74 0;
#X connect 61 0 60 0;
#X connect 62 0 61 0;
#X connect 63 0 64 0;
#X connect 63 0 65 0;
#X connect 64 0 47 0;
#X connect 65 0 46 0;
#X connect 73 0 55 0;
#X connect 73 0 58 0;
#X connect 74 0 58 0;
#X connect 80 0 81 0;
#X connect 81 0 39 0;
#X connect 82 0 18 0;
#X connect 83 0 82 3;
#X connect 84 0 82 3;
#X connect 85 0 86 0;
#X connect 86 0 36 0;
#X connect 87 0 90 1;
#X connect 88 0 90 1;
#X connect 89 0 90 0;
#X connect 90 0 81 1;
#X connect 90 1 49 0;
#X connect 90 2 1 0;
#X connect 93 0 82 3;
