#N canvas 515 183 904 745 12;
#X obj 435 411 r time;
#X obj 486 411 r pitch;
#X obj 25 334 tabread4~ \$0array;
#X obj 25 312 receive~ currentsample;
#X obj 549 411 receive~ currentsample;
#X obj 94 499 dac~;
#N canvas 308 42 1519 925 soundplay 0;
#X obj 651 157 soundfiler;
#X obj 651 114 list append \$0array;
#X msg 651 92 read -resize \$1;
#X obj 651 135 list trim;
#X obj 651 70 symbol;
#X msg 651 46 drummo_mono.wav;
#X msg 651 245 range 0 \$1;
#X obj 651 222 - 1;
#X obj 651 268 s \$0slide;
#X obj 104 177 line~;
#X msg 84 144 0;
#X msg 118 144 1.91912e+07 435174;
#X msg 718 179 \$1;
#X obj 718 203 s \$0asr;
#X obj 378 88 r \$0asr;
#X obj 627 183 s \$0asize;
#X obj 328 64 r \$0asize;
#X obj 328 178 pack 0 0;
#X msg 328 202 set \$1 \$2;
#X obj 64 167 line;
#X obj 328 88 t f f;
#X obj 360 110 /;
#X obj 64 205 spigot;
#X obj 86 79 t f f;
#X obj 86 102 sel 0 1;
#X obj -16 177 s \$0slide;
#X obj 360 134 * 1000;
#X obj 149 177 send~ currentsample;
#X obj 86 54 inlet;
#X obj 651 23 loadbang;
#X obj 911 45 inlet;
#X obj 911 69 openpanel;
#X obj 107 370 hsl 392 100 0 1.91912e+07 0 0 empty empty empty 0 0
0 10 -262144 -258113 -262144 0 1;
#X obj 30 466 r \$0slide;
#X obj 100 497 outlet;
#X obj 173 549 outlet;
#X obj 173 496 /;
#X obj 202 496 r \$0asr;
#X obj 173 520 * 1000;
#X obj 218 19 r \$0loopplay;
#X obj 122 298 s \$0loopplay;
#N canvas 0 22 450 278 (subpatch) 0;
#X array \$0array 1.91912e+07 float 2;
#X coords 0 1 1.91912e+07 -1 400 100 1 0 0;
#X restore 103 370 graph;
#X obj 104 229 r \$0asize;
#X obj 64 254 tgl 15 0 empty empty empty 17 7 0 10 -262144 -1 -1 0
1;
#X floatatom 161 251 5 0 0 0 - - -;
#X obj 64 229 >=;
#X obj 105 253 - 2;
#X obj 64 274 change;
#X obj 64 298 sel 1;
#X msg 173 37 0 \, 1;
#X connect 0 0 7 0;
#X connect 0 0 15 0;
#X connect 0 1 12 0;
#X connect 1 0 3 0;
#X connect 2 0 1 0;
#X connect 3 0 0 0;
#X connect 4 0 2 0;
#X connect 5 0 4 0;
#X connect 6 0 8 0;
#X connect 7 0 6 0;
#X connect 9 0 27 0;
#X connect 10 0 9 0;
#X connect 10 0 19 0;
#X connect 11 0 9 0;
#X connect 11 0 19 0;
#X connect 12 0 13 0;
#X connect 14 0 21 1;
#X connect 16 0 20 0;
#X connect 17 0 18 0;
#X connect 18 0 11 0;
#X connect 19 0 25 0;
#X connect 19 0 22 0;
#X connect 20 0 17 0;
#X connect 20 1 21 0;
#X connect 21 0 26 0;
#X connect 22 0 45 0;
#X connect 23 0 24 0;
#X connect 23 1 22 1;
#X connect 24 0 10 0;
#X connect 24 1 11 0;
#X connect 26 0 17 1;
#X connect 28 0 23 0;
#X connect 29 0 5 0;
#X connect 30 0 31 0;
#X connect 31 0 2 0;
#X connect 32 0 34 0;
#X connect 32 0 36 0;
#X connect 33 0 32 0;
#X connect 36 0 38 0;
#X connect 37 0 36 1;
#X connect 38 0 35 0;
#X connect 39 0 49 0;
#X connect 42 0 44 0;
#X connect 42 0 46 0;
#X connect 43 0 47 0;
#X connect 45 0 43 0;
#X connect 46 0 45 1;
#X connect 47 0 48 0;
#X connect 48 0 40 0;
#X connect 49 0 23 0;
#X coords 0 -1 1 1 405 120 2 100 350;
#X restore 36 60 pd soundplay;
#X obj 37 21 tgl 15 0 empty empty empty 17 7 0 10 -262144 -1 -1 0 1
;
#X obj 434 21 bng 15 250 50 0 empty empty empty 17 7 0 10 -262144 -1
-1;
#X floatatom 434 204 8 0 0 0 - - -;
#X text 494 203 ms;
#X floatatom 36 205 8 0 0 0 - - -;
#X text 96 204 sample;
#X floatatom 497 376 5 0 0 0 - - -;
#X msg 321 337 0 10000;
#X msg 321 311 0 0;
#X floatatom 489 495 5 0 0 0 - - -;
#X obj 435 452 pvoc 1 \$0 \$0array;
#X text 308 261 timepoint dur;
#X obj 94 447 *~;
#X obj 142 448 *~;
#X obj 170 533 vsl 15 128 0 127 0 0 empty empty empty 0 -9 0 10 -262144
-1 -1 5200 1;
#X obj 170 669 / 127;
#X obj 230 533 vsl 15 128 0 127 0 0 empty empty empty 0 -9 0 10 -262144
-1 -1 11400 1;
#X obj 230 669 / 127;
#X floatatom 230 693 5 0 0 0 - - -;
#X floatatom 170 693 5 0 0 0 - - -;
#X msg 321 361 -1000 60000;
#X text 142 715 audio in;
#X text 232 716 pvoc;
#X text 541 373 pitch (semitones);
#X text 54 18 play (in loop);
#X text 304 19 load another file;
#X text 441 57 https://freesound.org/people/klankbeeld/sounds/263612/
;
#X connect 0 0 17 0;
#X connect 1 0 17 1;
#X connect 2 0 19 0;
#X connect 3 0 2 0;
#X connect 4 0 17 2;
#X connect 6 0 11 0;
#X connect 6 1 9 0;
#X connect 7 0 6 0;
#X connect 8 0 6 1;
#X connect 13 0 17 1;
#X connect 14 0 17 0;
#X connect 15 0 17 0;
#X connect 17 0 20 0;
#X connect 17 1 16 0;
#X connect 19 0 5 0;
#X connect 20 0 5 1;
#X connect 21 0 22 0;
#X connect 22 0 19 1;
#X connect 22 0 26 0;
#X connect 23 0 24 0;
#X connect 24 0 20 1;
#X connect 24 0 25 0;
#X connect 27 0 17 0;
